<svg xmlns="http://www.w3.org/2000/svg" width="900" height="460" viewBox="0 0 900 460" font-family="Helvetica,Arial">
  <rect width="900" height="460" fill="#f1f5f9"/><rect width="900" height="50" fill="#2c3e50"/>
  <text x="20" y="32" font-size="18" fill="#fff">TicketFlow Pro | Dashboard</text>
  <g fill="#fff" stroke="#e2e8f0"><rect x="20" y="70" width="200" height="90" rx="8"/><rect x="240" y="70" width="200" height="90" rx="8"/><rect x="460" y="70" width="200" height="90" rx="8"/><rect x="680" y="70" width="200" height="90" rx="8"/>
  <rect x="20" y="180" width="560" height="260" rx="8"/><rect x="600" y="180" width="280" height="260" rx="8"/></g>
  <g font-size="30" font-weight="bold" fill="#0f172a"><text x="40" y="125">1,284</text><text x="260" y="125">99.99%</text><text x="480" y="125">4.8</text><text x="700" y="125">-42%</text></g>
  <g font-size="12" fill="#64748b"><text x="40" y="95">Open tickets</text><text x="260" y="95">Uptime</text><text x="480" y="95">CSAT</text><text x="700" y="95">AI-predicted backlog</text></g>
  <polyline fill="none" stroke="#7c3aed" stroke-width="3" points="40,400 120,350 200,370 280,300 360,320 440,250 520,230"/>
  <g fill="#06b6d4"><rect x="630" y="360" width="30" height="60"/><rect x="680" y="320" width="30" height="100"/><rect x="730" y="280" width="30" height="140"/><rect x="780" y="230" width="30" height="190"/></g>
</svg>
